<svg width="240" height="194" viewBox="0 0 240 194" fill="none" xmlns="http://www.w3.org/2000/svg">
<path d="M90.7383 136.86L94.1332 128.438H132.54L136.955 136.97L90.7383 136.86ZM84.1815 153.704L87.4595 145.282H141.255L145.613 153.704H84.1815ZM77.6246 170.549L80.9034 162.126H149.97L154.328 170.549H77.6246ZM9.1317 193.71H0L76.6885 0H85.8208L184.621 193.71H175.606L81.2546 11.3463L9.1317 193.71ZM82.3084 31.349L87.4409 41.2695L27.1628 193.71H18.1472L82.3084 31.349ZM92.5982 51.2384L97.7155 61.1285L45.4276 193.71H36.2952L92.5982 51.2384ZM102.833 71.0193L108.003 81.0117L63.458 193.71H54.4431L102.833 71.0193ZM239.064 193.71H229.932L131.132 0H140.146L239.064 193.71ZM121.999 0L220.916 193.71H211.902L112.984 0H121.999ZM103.851 0L202.769 193.71H193.637L94.8357 0H103.851Z" fill="#071125"/>
<path d="M188.529 76.8642L180.1 60.3569V0H188.529V76.8642ZM205.389 109.882L196.959 93.3742V0H205.389V109.882ZM222.249 142.899L213.819 126.39V0H222.249V142.899ZM230.679 179.081V0H239.109C239.109 64.6373 238.86 127.976 239.064 193.71C233.666 184.298 232.777 182.748 230.673 179.081H230.679Z" fill="#071125"/>
<path d="M9.1317 193.71H0L76.6885 0L81.2547 11.3463L9.1317 193.71ZM82.3084 31.349L87.4409 41.2695L27.1628 193.71H18.1472L82.3084 31.349ZM92.5982 51.2384L97.7155 61.1285L45.4276 193.71H36.2952L92.5982 51.2384Z" fill="#16488F"/>
</svg>
