<svg xmlns="http://www.w3.org/2000/svg" width="24" height="24" viewBox="0 0 24 24" fill="none" stroke="currentColor" stroke-width="2" stroke-linecap="round" stroke-linejoin="round">
<path d="M12.4041 22.9732C11.2327 23.1051 10.3163 22.7314 9.67765 22.2483C9.03898 21.7653 8.71965 21.0896 8.71965 20.2219C8.71965 19.7799 8.78502 19.3535 8.91634 18.9445L10.6148 12.4705C10.7916 11.9999 9.87495 14.0672 7.00439 14.0672C6.26738 14.0672 5.59227 13.8913 4.9779 13.539C4.36411 13.1873 3.88048 12.6631 3.52875 11.9672C3.17586 11.2713 3 10.4405 3 9.47386C3 8.67148 3.09835 7.90208 3.29504 7.16506C3.63867 5.80616 4.17494 4.66362 4.90385 3.7386C5.63218 2.81357 6.47564 2.12573 7.43364 1.67566C8.39164 1.22501 9.38608 0.999968 10.4181 0.999968C11.3842 0.999968 12.1988 1.13939 12.8623 1.41765C13.5253 1.69648 14.2734 2.69498 14.6429 2.69498C14.8804 2.69498 15.9424 1.67485 16.2192 1.40497C16.2637 1.36154 16.3078 1.31724 16.3635 1.28941C16.4203 1.261 16.4832 1.24583 16.5474 1.24583H19.6418C19.9154 1.24583 20.1132 1.50789 20.0375 1.77111L15.3024 18.3064C15.1711 18.7814 15.1057 19.1088 15.1057 19.2887C15.1057 19.5016 15.159 19.6486 15.2654 19.7307C15.3718 19.8123 15.5477 19.8533 15.7936 19.8533C15.9 19.8533 16.0175 19.8464 16.1465 19.8319C16.3565 19.8088 16.5641 19.7683 16.7689 19.7168L17.6465 19.501C17.7937 19.4648 17.9181 19.5805 17.9198 19.7121C17.9208 19.7936 17.8633 19.8589 17.8102 19.9208C17.3951 20.4054 15.3331 22.6439 12.4041 22.9732Z" ></path>
</svg>